<svg version="1.1" xmlns="http://www.w3.org/2000/svg" viewBox="0 0 100 100">
<path d="M10,50 Q30,30 50,50 T90,50 Q70,70 50,50 T10,50 Z" opacity="0"/>
<path d="M90.5,35.2c-3.6,1.2-12.1,4.1-12.1,4.1s-5.3-5.1-8.3-7.1c-4.4-3.1-12.7-8-14.9-9c-2.9-1.3-7.8-3.1-10.6-1l-3.9,2.7l12,11.4l-6.9,3.8l-16.8-13.1l-6.6,2.3c0,0 2.2,3.2 4.5,7.2c2.2,3.8 5.7,8.4 5.7,8.4s-7,1.4-12.5,2.5c-3.2,0.6-6,1.4-6,1.4s6.3,2.7 14,2.6c6.1-0.1 15-1 15-1l2.7,2.8l-3.5,3.6c0,0-7.2-0.3-10.5-0.4c-3.3-0.1-6.1-0.1-6.1-0.1s2.4,2.6 5.4,3.4c3.1,0.9 10.1,2.4 10.1,2.4l3.8,3.8c0,0 6.5-3.5 17.1-4.1c8.3-0.5 16.6,0.3 16.6,0.3s3.1-5,5.2-10.4C89.7,45.4,94.1,34,90.5,35.2z"/>
</svg>
